<?xml version="1.0" encoding="UTF-8"?>
<svg version="1.1" xmlns="http://www.w3.org/2000/svg" width="1200" height="1327">
<path d="M0 0 C6.61771079 3.81469053 13.3134057 7.48647646 20.0078125 11.1640625 C28.78630175 15.98939834 37.54548941 20.84483063 46.2578125 25.7890625 C59.00217256 33.02026206 71.8167563 40.12342627 84.6328125 47.2265625 C98.43033918 54.87366627 112.21563925 62.53864489 125.93945312 70.31738281 C136.65139986 76.38207216 147.41858846 82.34687589 158.18457031 88.31494141 C177.72283731 99.14647855 197.23184712 110.02893435 216.71679688 120.95605469 C229.64487126 128.2050983 242.58640413 135.42899545 255.54638672 142.62084961 C264.11440303 147.377508 272.66703786 152.16110388 281.21435547 156.95483398 C288.88397636 161.25381061 296.56868494 165.52509176 304.2578125 169.7890625 C312.56983599 174.39949011 320.8640835 179.03893228 329.1328125 183.7265625 C340.77748513 190.32696638 352.4778494 196.82538214 364.18457031 203.31494141 C383.72283731 214.14647855 403.23184712 225.02893435 422.71679688 235.95605469 C433.37717519 241.93355334 444.0410988 247.904244 454.72705078 253.8359375 C456.98893367 255.09156625 459.250331 256.34807011 461.51123047 257.60546875 C467.16931531 260.75203585 472.83292778 263.88772881 478.5078125 267.00390625 C480.71621445 268.22383413 482.92455034 269.44388161 485.1328125 270.6640625 C486.12861328 271.20675781 487.12441406 271.74945313 488.15039062 272.30859375 C507.40745082 282.98525999 524.01010116 297.87510785 530.70611477 319.41354465 C533.78916655 330.52029646 533.18919148 341.99450584 533.1474762 353.42234802 C533.15280675 355.97714627 533.15987535 358.53194137 533.16852325 361.08673054 C533.18443419 366.62276402 533.18563727 372.15864533 533.17692566 377.69469261 C533.16400578 385.92727394 533.17405093 394.15971871 533.18842521 402.3922919 C533.21331379 417.09938929 533.21525935 431.80642217 533.20715109 446.51353447 C533.2000699 459.38482027 533.20002903 472.25608108 533.20701408 485.12736702 C533.20792543 486.85594954 533.20883619 488.58453205 533.20974637 490.31311457 C533.21112955 492.91813274 533.21252064 495.52315091 533.21393251 498.12816906 C533.22690687 522.33620593 533.2320355 546.54423445 533.2203989 570.75227261 C533.21996093 571.66416937 533.21952296 572.57606614 533.21907172 573.51559614 C533.21546513 580.92017893 533.21163024 588.32476161 533.20778079 595.72934428 C533.19293302 624.61232252 533.20171545 653.49520619 533.22973633 682.37817383 C533.26118093 714.85206349 533.27612911 747.32589719 533.26593632 779.79980236 C533.26489958 783.26384897 533.26391235 786.72789559 533.2629528 790.19194221 C533.26270392 791.04483609 533.26245503 791.89772996 533.2621986 792.77646911 C533.25876227 805.63669411 533.26805038 818.49686959 533.28372383 831.35708427 C533.30151167 845.98554439 533.3015965 860.61388418 533.27837218 875.24233919 C533.2658949 883.4219834 533.26707477 891.60135096 533.28825304 899.78097878 C533.30252898 905.89777299 533.29050286 912.01425593 533.26845609 918.13102115 C533.2635806 920.59853781 533.267067 923.06608878 533.27994353 925.53357666 C533.39168798 948.61985419 529.46051328 965.89632669 513.55078125 983.55859375 C506.20208334 990.27768435 497.63493654 995.08929699 488.9453125 999.8515625 C486.72239365 1001.08285937 484.49974315 1002.3146408 482.27734375 1003.546875 C480.60792725 1004.46968262 480.60792725 1004.46968262 478.90478516 1005.41113281 C473.96361198 1008.15270599 469.04803026 1010.93880792 464.1328125 1013.7265625 C453.03869911 1020.00727603 441.91667154 1026.23757341 430.79003906 1032.46044922 C425.56987541 1035.38054386 420.35140477 1038.30366082 415.1328125 1041.2265625 C408.86022402 1044.73980102 402.58727131 1048.25237999 396.3125 1051.76171875 C386.24077128 1057.39590363 376.17619907 1063.04198499 366.1328125 1068.7265625 C355.03808546 1075.00620089 343.91667857 1081.23756948 332.79003906 1087.46044922 C327.56987541 1090.38054386 322.35140477 1093.30366082 317.1328125 1096.2265625 C310.86022402 1099.73980102 304.58727131 1103.25237999 298.3125 1106.76171875 C288.24077128 1112.39590363 278.17619907 1118.04198499 268.1328125 1123.7265625 C254.93637076 1131.19577574 241.70149529 1138.5959265 228.46679688 1145.99707031 C217.34310282 1152.21850636 206.22468845 1158.44853784 195.1328125 1164.7265625 C184.03808546 1171.00620089 172.91667857 1177.23756948 161.79003906 1183.46044922 C156.56987541 1186.38054386 151.35140477 1189.30366082 146.1328125 1192.2265625 C139.86022402 1195.73980102 133.58727131 1199.25237999 127.3125 1202.76171875 C117.24077128 1208.39590363 107.17619907 1214.04198499 97.1328125 1219.7265625 C86.03808546 1226.00620089 74.91667857 1232.23756948 63.79003906 1238.46044922 C58.56987541 1241.38054386 53.35140477 1244.30366082 48.1328125 1247.2265625 C41.86022402 1250.73980102 35.58727131 1254.25237999 29.3125 1257.76171875 C20.18957018 1262.86513989 11.068632 1267.97165449 1.97143555 1273.12084961 C0.08596918 1274.18739406 -1.80058074 1275.25202534 -3.68823242 1276.31469727 C-8.74809053 1279.16508255 -13.78547823 1282.04840117 -18.80078125 1284.9765625 C-41.17857162 1297.9416456 -61.44742413 1305.03569136 -87.41943359 1298.75244141 C-98.61772226 1295.72898769 -108.54488026 1289.42118186 -118.48046875 1283.6328125 C-124.85062889 1279.92653751 -131.2927385 1276.3550507 -137.7421875 1272.7890625 C-147.12322051 1267.59314936 -156.47825076 1262.35469101 -165.80859375 1257.06835938 C-172.77555932 1253.12233946 -179.7550525 1249.1992542 -186.7421875 1245.2890625 C-187.77988281 1244.70833984 -188.81757813 1244.12761719 -189.88671875 1243.52929688 C-193.04667715 1241.76136476 -196.20688328 1239.99387636 -199.3671875 1238.2265625 C-212.4963172 1230.88445511 -225.61684656 1223.52827661 -238.70800781 1216.11865234 C-248.85711425 1210.37744554 -259.03304508 1204.6843964 -269.20996094 1198.99267578 C-275.47047658 1195.49062118 -281.72867362 1191.98442497 -287.98730469 1188.47900391 C-293.21993798 1185.54843465 -298.45312972 1182.61887206 -303.6875 1179.69140625 C-314.70889271 1173.5259737 -325.71764069 1167.3392228 -336.70800781 1161.11865234 C-347.90668264 1154.78371946 -359.13756775 1148.5064208 -370.3671875 1142.2265625 C-383.4963172 1134.88445511 -396.61684656 1127.52827661 -409.70800781 1120.11865234 C-419.85711425 1114.37744554 -430.03304508 1108.6843964 -440.20996094 1102.99267578 C-446.47047658 1099.49062118 -452.72867362 1095.98442497 -458.98730469 1092.47900391 C-464.21993798 1089.54843465 -469.45312972 1086.61887206 -474.6875 1083.69140625 C-485.70889271 1077.5259737 -496.71764069 1071.3392228 -507.70800781 1065.11865234 C-517.85711425 1059.37744554 -528.03304508 1053.6843964 -538.20996094 1047.99267578 C-544.47047658 1044.49062118 -550.72867362 1040.98442497 -556.98730469 1037.47900391 C-562.21993798 1034.54843465 -567.45312972 1031.61887206 -572.6875 1028.69140625 C-583.74511722 1022.5058111 -594.80040634 1016.31626378 -605.81787109 1010.05932617 C-610.70438417 1007.28556858 -615.60397103 1004.540625 -620.53125 1001.83984375 C-640.634856 990.76959022 -640.634856 990.76959022 -648.3671875 983.2265625 C-649.00011719 982.62070312 -649.63304687 982.01484375 -650.28515625 981.390625 C-666.57380702 964.34687121 -667.96282981 944.35944136 -667.8818512 922.03713989 C-667.8871808 919.47083032 -667.89424886 916.90452387 -667.90289825 914.33822334 C-667.91881924 908.77394023 -667.92000745 903.2098085 -667.91130066 897.64551163 C-667.89838789 889.37090739 -667.9084209 881.09643916 -667.92280021 872.82184303 C-667.94769677 858.03992091 -667.94963241 843.25806295 -667.94152609 828.47612599 C-667.93444625 815.53877215 -667.93440272 802.60144317 -667.94138908 789.6640892 C-667.94230043 787.92695964 -667.94321119 786.18983008 -667.94412137 784.45270052 C-667.94550454 781.83482675 -667.94689564 779.21695298 -667.94830751 776.59907923 C-667.96128319 752.26922698 -667.96640893 727.93938303 -667.9547739 703.6095295 C-667.95433593 702.69291813 -667.95389796 701.77630677 -667.95344672 700.8319193 C-667.9498401 693.38895785 -667.94600522 685.94599651 -667.94215579 678.50303518 C-667.92730919 649.47252894 -667.93608809 620.44211679 -667.96411133 591.41162109 C-667.99555576 558.77476459 -668.01050404 526.13796377 -668.00031132 493.50109184 C-667.99927458 490.01961701 -667.99828735 486.53814218 -667.9973278 483.05666733 C-667.99707892 482.1994775 -667.99683003 481.34228768 -667.9965736 480.4591224 C-667.9931371 467.53345968 -668.00242607 454.60784622 -668.01809883 441.68219376 C-668.0358866 426.97868412 -668.0359717 412.27529419 -668.01274718 397.57178964 C-668.00026945 389.34993714 -668.00145061 381.12835987 -668.02262804 372.90652366 C-668.03690322 366.75826777 -668.0248787 360.61032157 -668.00283109 354.46209453 C-667.99795531 351.98176206 -668.00144279 349.50139544 -668.01431853 347.0210916 C-668.09915285 329.40237292 -667.00960285 314.02027461 -656.3671875 299.2265625 C-655.77035156 298.38609375 -655.17351563 297.545625 -654.55859375 296.6796875 C-646.79302061 286.36725636 -636.94052059 280.07955563 -625.6796875 274.0390625 C-624.48376116 273.38784478 -623.2884595 272.73547868 -622.09375 272.08203125 C-620.27217605 271.08588806 -618.45027454 270.09041791 -616.62637329 269.09854126 C-611.00255747 266.03959666 -605.43142046 262.89217383 -599.8671875 259.7265625 C-590.41436746 254.36448482 -580.91919221 249.08118049 -571.4140625 243.8125 C-564.21260363 239.81717008 -557.03110618 235.78878454 -549.8671875 231.7265625 C-540.41351872 226.36596261 -530.91920933 221.08118999 -521.4140625 215.8125 C-514.21260363 211.81717008 -507.03110618 207.78878454 -499.8671875 203.7265625 C-490.41351872 198.36596261 -480.91920933 193.08118999 -471.4140625 187.8125 C-464.21260363 183.81717008 -457.03110618 179.78878454 -449.8671875 175.7265625 C-440.41351872 170.36596261 -430.91920933 165.08118999 -421.4140625 159.8125 C-414.21260363 155.81717008 -407.03110618 151.78878454 -399.8671875 147.7265625 C-390.41351872 142.36596261 -380.91920933 137.08118999 -371.4140625 131.8125 C-364.21260363 127.81717008 -357.03110618 123.78878454 -349.8671875 119.7265625 C-340.41351872 114.36596261 -330.91920933 109.08118999 -321.4140625 103.8125 C-314.21260363 99.81717008 -307.03110618 95.78878454 -299.8671875 91.7265625 C-290.41351872 86.36596261 -280.91920933 81.08118999 -271.4140625 75.8125 C-264.21260363 71.81717008 -257.03110618 67.78878454 -249.8671875 63.7265625 C-240.41351872 58.36596261 -230.91920933 53.08118999 -221.4140625 47.8125 C-214.21260363 43.81717008 -207.03110618 39.78878454 -199.8671875 35.7265625 C-191.55837468 31.01514071 -183.22124633 26.35727012 -174.8671875 21.7265625 C-166.47272727 17.07294378 -158.09358776 12.39454558 -149.7421875 7.6640625 C-138.57669782 1.34221015 -127.40736107 -4.97166878 -116.18945312 -11.20019531 C-113.63183143 -12.62591453 -111.08488274 -14.06898999 -108.5390625 -15.515625 C-68.9877586 -37.70358543 -35.63392132 -20.61906439 0 0 Z " fill="#00599B" transform="translate(667.3671875,25.7734375)"/>
<path d="M0 0 C1.07621613 0.00343414 2.15243225 0.00686829 3.26126099 0.01040649 C18.82002371 0.06853747 34.23630534 0.26130328 49.6875 2.25 C50.97011719 2.41129395 52.25273438 2.57258789 53.57421875 2.73876953 C72.54254754 5.16239267 91.15568988 8.46363845 109.6875 13.25 C110.82936768 13.53979736 111.97123535 13.82959473 113.14770508 14.12817383 C122.89503527 16.65401942 132.4521548 19.62282342 142 22.8125 C142.7822998 23.0735553 143.56459961 23.3346106 144.37060547 23.60357666 C189.95454588 38.88954856 232.78623859 61.60095725 270.6875 91.25 C271.50605469 91.88808594 272.32460938 92.52617187 273.16796875 93.18359375 C288.50778817 105.30424598 302.96136368 118.33643931 316.77954102 132.15673828 C318.37954519 133.75453893 319.98743615 135.34411551 321.59570312 136.93359375 C328.08017897 143.38335938 333.98985187 150.08329491 339.6875 157.25 C340.61063439 158.34003468 341.54025708 159.42466065 342.48046875 160.5 C355.93884513 175.95627565 367.27916592 192.85768723 378.30566406 210.09960938 C379.41596186 211.82743676 380.54824942 213.54112412 381.6875 215.25 C381.63500977 217.23876953 381.63500977 217.23876953 380.6875 219.25 C378.47631836 220.85888672 378.47631836 220.85888672 375.52734375 222.4296875 C374.43599121 223.02144775 373.34463867 223.61320801 372.22021484 224.22290039 C371.34245392 224.6872197 371.34245392 224.6872197 370.44696045 225.16091919 C367.33723726 226.8064129 364.25089226 228.49498283 361.16015625 230.17578125 C360.52895874 230.51731735 359.89776123 230.85885345 359.24743652 231.21073914 C353.27602745 234.44902633 347.41221021 237.85961752 341.5625 241.3125 C333.49168115 246.05925507 325.36933299 250.69727745 317.1875 255.25 C308.9654741 259.825664 300.8016857 264.48570748 292.6875 269.25 C283.53836711 274.62196793 274.31346869 279.84076525 265.04296875 285 C257.8739615 288.99964539 250.76660595 293.09353527 243.6875 297.25 C234.31929025 302.74970657 224.88322869 308.11510339 215.38598633 313.38891602 C210.94159696 315.85794247 206.50825532 318.33187355 202.14453125 320.94140625 C201.49307129 321.32828613 200.84161133 321.71516602 200.17041016 322.11376953 C198.52820716 323.0958757 196.89449764 324.09214824 195.26171875 325.08984375 C192.6875 326.25 192.6875 326.25 190.67724609 326.01879883 C187.14862184 324.65540769 185.5860864 321.0786872 183.625 318 C178.48761209 310.23401955 172.8594409 303.20945858 166.6875 296.25 C165.88054688 295.3321875 165.07359375 294.414375 164.2421875 293.46875 C149.17734679 276.5144208 131.34242415 262.55893219 111.6875 251.25 C111.09372559 250.90259766 110.49995117 250.55519531 109.88818359 250.19726562 C96.81908316 242.62038408 82.91054352 237.25853986 68.6875 232.25 C67.89827148 231.97140137 67.10904297 231.69280273 66.29589844 231.40576172 C29.51266468 218.85329224 -12.9371217 218.88330984 -50.3125 228.25 C-51.47007812 228.52457031 -52.62765625 228.79914063 -53.8203125 229.08203125 C-100.87831553 240.8215543 -144.30587229 269.37601507 -173.3125 308.25 C-173.73917969 308.81589844 -174.16585938 309.38179687 -174.60546875 309.96484375 C-192.44349799 333.73058732 -206.24892703 361.19253378 -212.4765625 390.34375 C-213.21585516 393.79838859 -214.06461511 397.20259985 -214.9375 400.625 C-225.00691668 445.68976648 -217.36736843 496.30000196 -197.19287109 537.45263672 C-196.38361255 539.10481681 -195.60622124 540.77250592 -194.83203125 542.44140625 C-185.40561317 562.27121011 -171.92102999 580.10020771 -156.69287109 595.82275391 C-155.39387642 597.16586018 -154.11232609 598.52577542 -152.83203125 599.88671875 C-146.21542152 606.76238009 -138.93045705 612.54374229 -131.3125 618.25 C-130.45350098 618.9001709 -130.45350098 618.9001709 -129.57714844 619.56347656 C-120.60251369 626.32392387 -111.23350568 631.99078732 -101.3125 637.25 C-100.66555176 637.59804688 -100.01860352 637.94609375 -99.35205078 638.3046875 C-88.69946092 644.00464003 -77.73797901 648.35109767 -66.3125 652.25 C-65.18199219 652.64058594 -64.05148437 653.03117188 -62.88671875 653.43359375 C-30.73553896 663.9327719 5.11622491 665.35051298 38.33886719 659.64697266 C40.45454148 659.28937532 42.56893832 658.98449027 44.6953125 658.69921875 C77.19563645 653.71221706 108.69604354 637.98364083 134.6875 618.25 C135.56535156 617.58484375 136.44320312 616.9196875 137.34765625 616.234375 C144.13055553 610.94564846 150.44186566 605.15300218 156.6875 599.25 C157.54472656 598.44691406 158.40195312 597.64382813 159.28515625 596.81640625 C168.35891547 588.05900631 175.76952183 578.01437205 183.125 567.8125 C183.52589844 567.25788086 183.92679688 566.70326172 184.33984375 566.13183594 C187.06325408 562.29743981 189.40858801 558.3561945 191.6875 554.25 C195.13814709 555.57022419 198.36990276 557.07206449 201.6171875 558.83203125 C202.5649707 559.34491699 203.51275391 559.85780273 204.48925781 560.38623047 C205.50342773 560.93939941 206.51759766 561.49256836 207.5625 562.0625 C208.62823242 562.6414502 209.69396484 563.22040039 210.79199219 563.81689453 C218.8281082 568.19775152 226.79384289 572.69483671 234.74633789 577.22509766 C242.4332972 581.58463178 250.20209324 585.78125131 258 589.9375 C266.99469219 594.73203285 275.95544713 599.57544927 284.8515625 604.55078125 C291.05291688 608.01890666 297.27770942 611.4446415 303.5 614.875 C304.7512309 615.56500429 306.00245155 616.25502718 307.25366211 616.94506836 C309.79746543 618.34792896 312.34133816 619.7506636 314.88525391 621.15332031 C320.38794534 624.18750644 325.88973779 627.22332184 331.39157104 630.25906372 C334.38081358 631.90843235 337.37008836 633.55774255 340.359375 635.20703125 C341.25045204 635.69867012 341.25045204 635.69867012 342.15953064 636.20024109 C345.98527885 638.31099096 349.81119255 640.4214406 353.63720703 642.53170776 C356.27062711 643.98420453 358.90399231 645.4368008 361.53735352 646.8894043 C362.78325719 647.57662831 364.02918725 648.26380447 365.27514648 648.95092773 C372.08523961 652.70658281 378.89242386 656.46723101 385.6875 660.25 C378.87338641 678.44334762 365.48237346 695.02351702 353.6875 710.25 C353.25727539 710.81025879 352.82705078 711.37051758 352.38378906 711.94775391 C347.06297226 718.8716131 341.63552508 725.60087042 335.72265625 732.03515625 C333.90282831 734.01565997 332.13183669 736.02626277 330.375 738.0625 C320.77332959 749.06766283 310.86475145 759.94247224 299.76171875 769.453125 C297.48592282 771.4246243 295.27827333 773.46134395 293.0625 775.5 C287.46149595 780.54687123 281.57517565 785.16946515 275.60449219 789.765625 C273.6650928 791.26735046 271.74201963 792.78822153 269.8203125 794.3125 C225.11182487 829.50669053 173.1742788 853.72006789 118.6875 869.25 C117.69331055 869.53568848 116.69912109 869.82137695 115.67480469 870.11572266 C102.91341812 873.71748181 89.99770404 876.22050029 76.9375 878.4375 C76.23591766 878.55837982 75.53433533 878.67925964 74.81149292 878.80380249 C51.79046587 882.72826657 28.84048506 884.74921476 5.4855957 884.58618164 C1.85801137 884.56238857 -1.76884037 884.56568542 -5.39648438 884.57226562 C-20.13056514 884.55495288 -34.66676313 883.86594102 -49.3125 882.25 C-50.0030246 882.17447906 -50.69354919 882.09895813 -51.40499878 882.02114868 C-55.32225877 881.58173403 -59.22408044 881.06533317 -63.125 880.5 C-64.28604248 880.33226074 -65.44708496 880.16452148 -66.64331055 879.99169922 C-79.03878944 878.11387604 -91.16004589 875.29725143 -103.3125 872.25 C-105.27733275 871.77078821 -107.24217626 871.29162056 -109.20703125 870.8125 C-165.81054485 856.77083455 -220.43209448 830.3036327 -266.3125 794.25 C-267.40957418 793.40679423 -268.5072655 792.56439098 -269.60546875 791.72265625 C-288.27116743 777.33707366 -307.3215549 761.48464168 -322.625 743.5 C-325.37048122 740.30814878 -328.19839615 737.21081173 -331.0625 734.125 C-336.36298523 728.31052833 -341.19943817 722.19368372 -345.99072266 715.95703125 C-347.19967832 714.39570542 -348.43265565 712.8530563 -349.66796875 711.3125 C-361.83974962 695.98054152 -372.70212529 679.30320277 -382.3125 662.25 C-382.79251465 661.40066895 -383.2725293 660.55133789 -383.76708984 659.67626953 C-409.19877894 614.38706728 -426.79083104 565.49985184 -434.85107422 514.18652344 C-435.39430863 510.72936812 -435.95405406 507.27498026 -436.51586914 503.82080078 C-439.55787406 483.9200645 -440.78724733 464.19218896 -440.8125 444.0625 C-440.8148465 442.85899902 -440.81719299 441.65549805 -440.8196106 440.41552734 C-440.78378518 395.43949262 -434.08081791 351.08559241 -420.3125 308.25 C-420.01263184 307.31462402 -419.71276367 306.37924805 -419.40380859 305.41552734 C-414.27975529 289.64775041 -408.02369631 274.40295266 -401.3125 259.25 C-400.92980957 258.38391113 -400.54711914 257.51782227 -400.15283203 256.62548828 C-387.93898016 229.26097071 -372.17349506 202.56005062 -353.66943359 178.98779297 C-352.35033631 177.29845608 -351.05623212 175.5930025 -349.76953125 173.87890625 C-345.47039137 168.16881892 -341.0177844 162.62064166 -336.375 157.1875 C-335.93349609 156.6704248 -335.49199219 156.15334961 -335.03710938 155.62060547 C-326.53180012 145.77917848 -317.60181758 136.35260311 -308.40576172 127.15795898 C-306.80796107 125.55795481 -305.21838449 123.95006385 -303.62890625 122.34179688 C-297.17914062 115.85732103 -290.47920509 109.94764813 -283.3125 104.25 C-282.22246532 103.32686561 -281.13783935 102.39724292 -280.0625 101.45703125 C-225.85684459 54.25807277 -156.83403422 23.05379891 -86.77636719 8.75683594 C-84.63062607 8.31544092 -82.49066539 7.85508197 -80.3515625 7.3828125 C-73.02128359 5.81319428 -65.67848057 4.67721524 -58.25 3.6875 C-57.39535156 3.5726123 -56.54070312 3.45772461 -55.66015625 3.33935547 C-52.54727241 2.94291392 -49.43202561 2.59067759 -46.3125 2.25 C-45.55871063 2.16635193 -44.80492126 2.08270386 -44.02828979 1.996521 C-29.32786509 0.40051065 -14.78006666 -0.07766666 0 0 Z " fill="#FEFEFE" transform="translate(598.3125,220.75)"/>
<path d="M0 0 C6.61771079 3.81469053 13.3134057 7.48647646 20.0078125 11.1640625 C28.78630175 15.98939834 37.54548941 20.84483063 46.2578125 25.7890625 C59.00217256 33.02026206 71.8167563 40.12342627 84.6328125 47.2265625 C98.43033918 54.87366627 112.21563925 62.53864489 125.93945312 70.31738281 C136.65139986 76.38207216 147.41858846 82.34687589 158.18457031 88.31494141 C177.72283731 99.14647855 197.23184712 110.02893435 216.71679688 120.95605469 C229.64487126 128.2050983 242.58640413 135.42899545 255.54638672 142.62084961 C264.11440303 147.377508 272.66703786 152.16110388 281.21435547 156.95483398 C288.88397636 161.25381061 296.56868494 165.52509176 304.2578125 169.7890625 C312.56983599 174.39949011 320.8640835 179.03893228 329.1328125 183.7265625 C340.77748513 190.32696638 352.4778494 196.82538214 364.18457031 203.31494141 C383.72283731 214.14647855 403.23184712 225.02893435 422.71679688 235.95605469 C433.37717519 241.93355334 444.0410988 247.904244 454.72705078 253.8359375 C456.98893367 255.09156625 459.250331 256.34807011 461.51123047 257.60546875 C467.16931531 260.75203585 472.83292778 263.88772881 478.5078125 267.00390625 C480.71621445 268.22383413 482.92455034 269.44388161 485.1328125 270.6640625 C486.12861328 271.20675781 487.12441406 271.74945313 488.15039062 272.30859375 C513.30986811 286.25772934 513.30986811 286.25772934 516.6328125 296.2265625 C504.53207361 303.34733789 492.40194393 310.39928289 480.1328125 317.2265625 C471.91078922 321.80224158 463.74706987 326.46238648 455.6328125 331.2265625 C446.4084615 336.64106949 437.11266778 341.91286944 427.77075195 347.12158203 C418.64143508 352.21280859 409.56186335 357.38698725 400.49414062 362.58691406 C395.61575281 365.38241343 390.73310336 368.17045354 385.85092163 370.95932007 C384.06497703 371.9796106 382.27916872 373.00013926 380.4934082 374.02075195 C375.09643695 377.10523882 369.69915918 380.18918252 364.30015564 383.27011108 C361.95138912 384.61048229 359.60286608 385.95127977 357.25436401 387.29211426 C355.52013121 388.28203086 353.78557941 389.27138854 352.05102539 390.26074219 C346.07511057 393.67313378 340.11137396 397.10448545 334.1640625 400.56640625 C332.95070849 401.27144585 331.73732998 401.97644328 330.52392578 402.68139648 C328.22255093 404.01859415 325.92474253 405.36136576 323.62841797 406.70727539 C322.60635254 407.30145264 321.58428711 407.89562988 320.53125 408.5078125 C319.63067871 409.03439453 318.73010742 409.56097656 317.80224609 410.10351562 C315.6328125 411.2265625 315.6328125 411.2265625 313.6328125 411.2265625 C313.3028125 411.8865625 312.9728125 412.5465625 312.6328125 413.2265625 C312.12234375 412.24429688 312.12234375 412.24429688 311.6015625 411.2421875 C307.71092274 403.91619561 303.35386646 397.04014018 298.6328125 390.2265625 C298.18631348 389.57880859 297.73981445 388.93105469 297.27978516 388.26367188 C288.62255548 375.73432082 279.51556745 363.68996242 269.6328125 352.1015625 C269.19517578 351.58827393 268.75753906 351.07498535 268.30664062 350.54614258 C259.9567037 340.87093768 251.1887641 331.59575872 242.15332031 322.56176758 C240.62794537 321.03418834 239.11080578 319.49872668 237.59375 317.96289062 C231.26477047 311.598287 224.6605881 305.82431739 217.6328125 300.2265625 C216.54286846 299.30332108 215.45824043 298.37370411 214.3828125 297.43359375 C149.33088941 240.79037095 65.39735221 209.00160623 -19.3671875 198.2265625 C-20.30062988 198.10651855 -21.23407227 197.98647461 -22.19580078 197.86279297 C-53.61518644 194.05936382 -87.16372455 194.30242756 -118.47753906 198.82519531 C-121.27874999 199.21427868 -124.07723203 199.52623902 -126.890625 199.8125 C-208.44663767 208.48123816 -289.88493047 246.20281823 -351.55957031 299.70605469 C-352.90280823 300.83594201 -354.27094976 301.93635783 -355.65136719 303.02050781 C-363.63107817 309.33246217 -370.78223647 316.33613087 -377.94726562 323.54589844 C-379.98869127 325.59804791 -382.04059889 327.63927671 -384.09375 329.6796875 C-390.60830594 336.18803624 -396.87638454 342.70888982 -402.56665039 349.96069336 C-404.3508077 352.2059495 -406.22935012 354.31267816 -408.1796875 356.4140625 C-453.97381796 407.54782478 -484.35676597 476.23237924 -498.61425781 542.71704102 C-499.17483907 545.32999676 -499.74844849 547.93860341 -500.33105469 550.54663086 C-502.84556226 561.94137073 -504.76255775 573.32418555 -506.1171875 584.9140625 C-506.27828003 586.28513153 -506.27828003 586.28513153 -506.44262695 587.68389893 C-510.45738294 623.03773154 -510.53567473 659.98282629 -505.3671875 695.2265625 C-505.22796875 696.25910156 -505.08875 697.29164063 -504.9453125 698.35546875 C-501.05087997 727.16705758 -493.88897505 754.82248169 -484.3671875 782.2265625 C-483.96628906 783.39171387 -483.56539062 784.55686523 -483.15234375 785.75732422 C-475.31034517 808.36092095 -465.34790004 829.98387497 -454.3671875 851.2265625 C-455.099375 851.56945312 -455.8315625 851.91234375 -456.5859375 852.265625 C-465.5847873 856.61506907 -474.17410232 861.54513291 -482.78320312 866.61767578 C-490.09232689 870.91815499 -497.45514555 875.10624879 -504.8671875 879.2265625 C-513.04929894 883.77888182 -521.1703321 888.41904843 -529.2421875 893.1640625 C-538.84284254 898.80555413 -548.54671002 904.23868864 -558.29589844 909.61865234 C-566.75470562 914.29899837 -575.1155539 919.12842584 -583.44921875 924.02734375 C-590.53880041 928.18556602 -597.68527603 932.23017179 -604.8671875 936.2265625 C-613.31647172 940.92942233 -621.70865801 945.71773068 -630.0546875 950.6015625 C-631.05209961 951.18365479 -632.04951172 951.76574707 -633.07714844 952.36547852 C-637.34586601 954.85962103 -641.60640507 957.36435854 -645.83984375 959.91796875 C-646.49057861 960.30484863 -647.14131348 960.69172852 -647.81176758 961.09033203 C-649.46552809 962.07386668 -651.11205597 963.06953631 -652.7578125 964.06640625 C-655.3671875 965.2265625 -655.3671875 965.2265625 -657.5546875 965.22265625 C-660.17658011 963.78174544 -660.85806345 962.03303038 -662.1171875 959.3515625 C-662.75914062 958.02511719 -662.75914062 958.02511719 -663.4140625 956.671875 C-664.3671875 954.2265625 -664.3671875 954.2265625 -664.3671875 951.2265625 C-665.0271875 951.2265625 -665.6871875 951.2265625 -666.3671875 951.2265625 C-667.19417944 948.33333426 -667.49339141 945.76517594 -667.49713933 942.75989699 C-667.50066775 941.86342192 -667.50419617 940.96694685 -667.50783151 940.04330587 C-667.50663374 939.06048462 -667.50543596 938.07766337 -667.50420189 937.06505966 C-667.50685372 936.0150694 -667.50950554 934.96507913 -667.51223773 933.88327098 C-667.51994821 930.33540011 -667.52049057 926.78756376 -667.52108765 923.23968506 C-667.52510113 920.68200941 -667.52953916 918.1243344 -667.5343672 915.56666017 C-667.54544415 909.25538289 -667.55109179 902.94411119 -667.55507608 896.6328259 C-667.56008447 889.0749841 -667.57081201 881.5171531 -667.58155782 873.95931767 C-667.60719329 855.68818613 -667.62222546 837.4170504 -667.63506828 819.14590605 C-667.63932301 813.09323865 -667.64388874 807.04057156 -667.6486516 800.98790455 C-667.67391453 768.80222023 -667.6959616 736.61653541 -667.70837975 704.43084335 C-667.71130106 696.97277576 -667.71426858 689.51470818 -667.71728516 682.05664062 C-667.71765607 681.13007216 -667.71802697 680.20350369 -667.71840912 679.2488574 C-667.73055983 649.21927186 -667.76149528 619.189745 -667.80320668 589.16018702 C-667.84601421 558.2851178 -667.87262338 527.41007956 -667.87785446 496.53497986 C-667.87859488 492.17200406 -667.87950556 487.8090283 -667.88051224 483.44605255 C-667.88070285 482.58739772 -667.88089347 481.72874289 -667.88108986 480.84406822 C-667.88460046 467.03753277 -667.90488481 453.23107089 -667.93130887 439.42456244 C-667.9574835 425.53866094 -667.96516828 411.65284425 -667.95420758 397.76692161 C-667.94824113 389.52288901 -667.95608762 381.27914458 -667.98403842 373.03515572 C-668.00338929 366.86999753 -667.99643056 360.70512668 -667.97946925 354.53996733 C-667.97666967 352.05259917 -667.98226526 349.5652038 -667.99728219 347.0778794 C-668.09726636 329.43275142 -667.02645259 314.04369695 -656.3671875 299.2265625 C-655.77035156 298.38609375 -655.17351563 297.545625 -654.55859375 296.6796875 C-646.79302061 286.36725636 -636.94052059 280.07955563 -625.6796875 274.0390625 C-624.48376116 273.38784478 -623.2884595 272.73547868 -622.09375 272.08203125 C-620.27217605 271.08588806 -618.45027454 270.09041791 -616.62637329 269.09854126 C-611.00255747 266.03959666 -605.43142046 262.89217383 -599.8671875 259.7265625 C-590.41436746 254.36448482 -580.91919221 249.08118049 -571.4140625 243.8125 C-564.21260363 239.81717008 -557.03110618 235.78878454 -549.8671875 231.7265625 C-540.41351872 226.36596261 -530.91920933 221.08118999 -521.4140625 215.8125 C-514.21260363 211.81717008 -507.03110618 207.78878454 -499.8671875 203.7265625 C-490.41351872 198.36596261 -480.91920933 193.08118999 -471.4140625 187.8125 C-464.21260363 183.81717008 -457.03110618 179.78878454 -449.8671875 175.7265625 C-440.41351872 170.36596261 -430.91920933 165.08118999 -421.4140625 159.8125 C-414.21260363 155.81717008 -407.03110618 151.78878454 -399.8671875 147.7265625 C-390.41351872 142.36596261 -380.91920933 137.08118999 -371.4140625 131.8125 C-364.21260363 127.81717008 -357.03110618 123.78878454 -349.8671875 119.7265625 C-340.41351872 114.36596261 -330.91920933 109.08118999 -321.4140625 103.8125 C-314.21260363 99.81717008 -307.03110618 95.78878454 -299.8671875 91.7265625 C-290.41351872 86.36596261 -280.91920933 81.08118999 -271.4140625 75.8125 C-264.21260363 71.81717008 -257.03110618 67.78878454 -249.8671875 63.7265625 C-240.41351872 58.36596261 -230.91920933 53.08118999 -221.4140625 47.8125 C-214.21260363 43.81717008 -207.03110618 39.78878454 -199.8671875 35.7265625 C-191.55837468 31.01514071 -183.22124633 26.35727012 -174.8671875 21.7265625 C-166.47272727 17.07294378 -158.09358776 12.39454558 -149.7421875 7.6640625 C-138.57669782 1.34221015 -127.40736107 -4.97166878 -116.18945312 -11.20019531 C-113.63183143 -12.62591453 -111.08488274 -14.06898999 -108.5390625 -15.515625 C-68.9877586 -37.70358543 -35.63392132 -20.61906439 0 0 Z " fill="#659AD2" transform="translate(667.3671875,25.7734375)"/>
<path d="M0 0 C3.04838612 1.98666189 4.39672042 5.12794964 6.078125 8.25390625 C15.09782085 24.28020642 25.46396344 39.72983049 36.828125 54.19140625 C37.67133077 55.28848043 38.51373402 56.38617175 39.35546875 57.484375 C62.74492992 87.83285979 90.02968008 115.35580713 120.828125 138.19140625 C121.50359375 138.69285156 122.1790625 139.19429687 122.875 139.7109375 C140.15028485 152.4809772 158.00965192 163.829399 176.828125 174.19140625 C177.72772949 174.68785645 178.62733398 175.18430664 179.55419922 175.69580078 C206.75639696 190.58935565 235.71916649 202.86780299 265.77587891 210.65771484 C267.75910661 211.17345786 269.73742883 211.70463292 271.71484375 212.2421875 C275.41472118 213.24351274 279.11968931 214.22228923 282.828125 215.19140625 C283.46959473 215.36027344 284.11106445 215.52914063 284.77197266 215.703125 C299.86275567 219.65892523 314.98944147 222.2948837 330.453125 224.31640625 C331.7512915 224.48720703 333.04945801 224.65800781 334.38696289 224.83398438 C350.87533103 226.93066243 367.09289319 227.40566618 383.69921875 227.43164062 C387.39607015 227.44125782 391.09234297 227.47231879 394.7890625 227.50390625 C411.65007018 227.57940969 428.11631116 226.40870428 444.828125 224.19140625 C445.70335815 224.07545105 446.57859131 223.95949585 447.48034668 223.84002686 C452.54974764 223.15100069 457.59750873 222.36339191 462.640625 221.50390625 C463.38406158 221.37857513 464.12749817 221.25324402 464.89346313 221.12411499 C500.61324328 215.0411416 535.82795708 204.16578855 568.828125 189.19140625 C570.51252686 188.42836182 570.51252686 188.42836182 572.23095703 187.64990234 C603.44785067 173.35870511 633.03831113 155.74298836 659.828125 134.19140625 C660.73046875 133.46953125 661.6328125 132.74765625 662.5625 132.00390625 C665.33874951 129.75723034 668.08816439 127.48219299 670.828125 125.19140625 C671.34955078 124.75634766 671.87097656 124.32128906 672.40820312 123.87304688 C685.87135067 112.60342278 699.73794599 100.84185921 711.140625 87.44140625 C713.88610622 84.24955503 716.71402115 81.15221798 719.578125 78.06640625 C724.87861023 72.25193458 729.71506317 66.13508997 734.50634766 59.8984375 C735.71530332 58.33711167 736.94828065 56.79446255 738.18359375 55.25390625 C750.67186498 39.52328655 761.35659629 22.30832819 771.828125 5.19140625 C776.49393744 6.91572824 780.81446657 9.18360755 785.203125 11.50390625 C786.03400635 11.9419458 786.8648877 12.37998535 787.72094727 12.83129883 C795.10531226 16.75306658 802.37053069 20.87244889 809.63305664 25.01416016 C817.40329615 29.42768189 825.25474324 33.67722972 833.140625 37.87890625 C842.135503 42.67308473 851.09607858 47.51685913 859.9921875 52.4921875 C866.19354188 55.96031291 872.41833442 59.38604775 878.640625 62.81640625 C879.8918559 63.50641054 881.14307655 64.19643343 882.39428711 64.88647461 C884.93809043 66.28933521 887.48196316 67.69206985 890.02587891 69.09472656 C894.92725931 71.79734957 899.8279122 74.50129072 904.72851562 77.20532227 C907.13205163 78.53153057 909.53570376 79.85752805 911.93945312 81.18334961 C918.04588688 84.55160832 924.15101902 87.92219425 930.25390625 91.296875 C937.44061631 95.27026606 944.63211825 99.23487763 951.828125 103.19140625 C952.41686401 103.51530334 953.00560303 103.83920044 953.61218262 104.1729126 C957.57606396 106.35297958 961.54466341 108.52425238 965.515625 110.69140625 C966.53180908 111.24981201 967.54799316 111.80821777 968.5949707 112.38354492 C969.98462036 113.13921753 969.98462036 113.13921753 971.40234375 113.91015625 C972.21276123 114.35294922 973.02317871 114.79574219 973.8581543 115.25195312 C975.7652452 116.33488821 975.7652452 116.33488821 977.828125 116.19140625 C981.33026158 109.68546082 983.95661537 103.34270321 985.828125 96.19140625 C988.14988266 102.09737729 984.17837865 108.72881176 981.828125 114.19140625 C973.1628349 130.72838315 960.13098592 140.05304157 944.140625 148.81640625 C941.91770615 150.04770312 939.69505565 151.27948455 937.47265625 152.51171875 C935.80323975 153.43452637 935.80323975 153.43452637 934.10009766 154.37597656 C929.15892448 157.11754974 924.24334276 159.90365167 919.328125 162.69140625 C908.23401161 168.97211978 897.11198404 175.20241716 885.98535156 181.42529297 C880.76518791 184.34538761 875.54671727 187.26850457 870.328125 190.19140625 C864.05553652 193.70464477 857.78258381 197.21722374 851.5078125 200.7265625 C841.43608378 206.36074738 831.37151157 212.00682874 821.328125 217.69140625 C810.23339796 223.97104464 799.11199107 230.20241323 787.98535156 236.42529297 C782.76518791 239.34538761 777.54671727 242.26850457 772.328125 245.19140625 C766.05553652 248.70464477 759.78258381 252.21722374 753.5078125 255.7265625 C743.43608378 261.36074738 733.37151157 267.00682874 723.328125 272.69140625 C710.13168326 280.16061949 696.89680779 287.56077025 683.66210938 294.96191406 C672.53841532 301.18335011 661.42000095 307.41338159 650.328125 313.69140625 C639.23339796 319.97104464 628.11199107 326.20241323 616.98535156 332.42529297 C611.76518791 335.34538761 606.54671727 338.26850457 601.328125 341.19140625 C595.05553652 344.70464477 588.78258381 348.21722374 582.5078125 351.7265625 C572.43608378 357.36074738 562.37151157 363.00682874 552.328125 368.69140625 C541.23339796 374.97104464 530.11199107 381.20241323 518.98535156 387.42529297 C513.76518791 390.34538761 508.54671727 393.26850457 503.328125 396.19140625 C497.05553652 399.70464477 490.78258381 403.21722374 484.5078125 406.7265625 C475.38488268 411.82998364 466.2639445 416.93649824 457.16674805 422.08569336 C455.28128168 423.15223781 453.39473176 424.21686909 451.50708008 425.27954102 C446.44722197 428.1299263 441.40983427 431.01324492 436.39453125 433.94140625 C414.01674088 446.90648935 393.74788837 454.00053511 367.77587891 447.71728516 C356.57759024 444.69383144 346.65043224 438.38602561 336.71484375 432.59765625 C330.34468361 428.89138126 323.902574 425.31989445 317.453125 421.75390625 C308.07209199 416.55799311 298.71706174 411.31953476 289.38671875 406.03320312 C282.41975318 402.08718321 275.44026 398.16409795 268.453125 394.25390625 C267.41542969 393.67318359 266.37773437 393.09246094 265.30859375 392.49414062 C262.14863535 390.72620851 258.98842922 388.95872011 255.828125 387.19140625 C242.6989953 379.84929886 229.57846594 372.49312036 216.48730469 365.08349609 C206.33819825 359.34228929 196.16226742 353.64924015 185.98535156 347.95751953 C179.72483592 344.45546493 173.46663888 340.94926872 167.20800781 337.44384766 C161.97537452 334.5132784 156.74218278 331.58371581 151.5078125 328.65625 C140.48641979 322.49081745 129.47767181 316.30406655 118.48730469 310.08349609 C107.28862986 303.74856321 96.05774475 297.47126455 84.828125 291.19140625 C71.6989953 283.84929886 58.57846594 276.49312036 45.48730469 269.08349609 C35.33819825 263.34228929 25.16226742 257.64924015 14.98535156 251.95751953 C8.72483592 248.45546493 2.46663888 244.94926872 -3.79199219 241.44384766 C-9.02462548 238.5132784 -14.25781722 235.58371581 -19.4921875 232.65625 C-30.51358021 226.49081745 -41.52232819 220.30406655 -52.51269531 214.08349609 C-62.66180175 208.34228929 -72.83773258 202.64924015 -83.01464844 196.95751953 C-89.27516408 193.45546493 -95.53336112 189.94926872 -101.79199219 186.44384766 C-107.02462548 183.5132784 -112.25781722 180.58371581 -117.4921875 177.65625 C-128.54980472 171.47065485 -139.60509384 165.28110753 -150.62255859 159.02416992 C-155.50907167 156.25041233 -160.40865853 153.50546875 -165.3359375 150.8046875 C-185.4395435 139.73443397 -185.4395435 139.73443397 -193.171875 132.19140625 C-194.12126953 131.28261719 -194.12126953 131.28261719 -195.08984375 130.35546875 C-201.68735532 123.45211227 -207.84871875 113.45836101 -210.171875 104.19140625 C-209.796875 101.81640625 -209.796875 101.81640625 -209.171875 100.19140625 C-208.70007813 101.47337891 -208.70007813 101.47337891 -208.21875 102.78125 C-207.79078125 103.88597656 -207.3628125 104.99070312 -206.921875 106.12890625 C-206.50421875 107.23105469 -206.0865625 108.33320312 -205.65625 109.46875 C-204.48194842 112.24995226 -204.48194842 112.24995226 -202.42480469 113.0390625 C-199.15079433 113.26045202 -197.45229146 112.00790572 -194.640625 110.3515625 C-193.53460938 109.70896484 -192.42859375 109.06636719 -191.2890625 108.40429688 C-190.08327567 107.687597 -188.87754816 106.97079733 -187.671875 106.25390625 C-186.41482504 105.51887664 -185.15699881 104.78517315 -183.8984375 104.05273438 C-181.28210956 102.52873576 -178.6692291 100.99906017 -176.05859375 99.46533203 C-170.12707293 95.98691875 -164.14744054 92.59343563 -158.171875 89.19140625 C-155.84452855 87.86289481 -153.51795214 86.53303779 -151.19140625 85.203125 C-150.61481766 84.87365875 -150.03822906 84.5441925 -149.44416809 84.20474243 C-145.89332172 82.17574927 -142.34320704 80.14548099 -138.79354858 78.1144104 C-126.50725196 71.0844017 -114.21112598 64.07299314 -101.88232422 57.11767578 C-90.81410639 50.86871655 -79.78452873 44.55216979 -68.75244141 38.23974609 C-63.4732578 35.2192998 -58.19210162 32.20230579 -52.91107178 29.18508911 C-50.02526776 27.53629696 -47.13959493 25.88727525 -44.25390625 24.23828125 C-43.09065818 23.57356661 -41.92740948 22.90885308 -40.76416016 22.24414062 C-40.17862366 21.90954834 -39.59308716 21.57495605 -38.98980713 21.23022461 C-14.99609375 7.51953125 -14.99609375 7.51953125 -11.90771484 5.76757812 C-10.24683185 4.81071032 -8.59742598 3.83299696 -6.97119141 2.81835938 C-4.64244537 1.3740801 -2.76121507 0.24334449 0 0 Z " fill="#004482" transform="translate(212.171875,876.80859375)"/>
<path d="M0 0 C0.60682617 0.44988281 1.21365234 0.89976562 1.83886719 1.36328125 C10.74177987 8.03205772 18.96346292 15.31817903 27 23 C27.67675781 23.63550781 28.35351562 24.27101563 29.05078125 24.92578125 C39.74599318 35.22760608 48.80036238 47.80056371 56.80859375 60.2578125 C58.01736317 62.14038022 58.01736317 62.14038022 60 64 C59.1234375 64.41507813 58.246875 64.83015625 57.34375 65.2578125 C47.82797833 69.84946436 38.71919104 75.00172637 29.62304688 80.37158203 C21.98167997 84.87257984 14.26666086 89.21924214 6.5 93.5 C-3.10842453 98.80157746 -12.62180398 104.23961727 -22.08203125 109.80078125 C-29.17161148 113.95900268 -36.31806095 118.0036613 -43.5 122 C-51.7220259 126.575664 -59.8858143 131.23570748 -68 136 C-77.1440349 141.36897462 -86.36352222 146.58536635 -95.62915039 151.74121094 C-103.97475586 156.39685771 -112.23104185 161.19447243 -120.47265625 166.03125 C-126.98171414 169.84394354 -133.53945402 173.54837127 -140.14990234 177.18164062 C-146.34756843 180.60313923 -152.45711144 184.16691482 -158.5625 187.75 C-167.85901535 193.20458809 -177.22877796 198.51047431 -186.6472168 203.7512207 C-193.77512453 207.72753973 -200.83882466 211.8013071 -207.875 215.9375 C-217.47565504 221.57899163 -227.17952252 227.01212614 -236.92871094 232.39208984 C-245.38751812 237.07243587 -253.7483664 241.90186334 -262.08203125 246.80078125 C-270.19281926 251.55796735 -278.3861573 256.15562364 -286.60327148 260.72607422 C-295.20796712 265.52488583 -303.72473894 270.46560023 -312.2109375 275.47070312 C-316.74366115 278.13719504 -321.24968209 280.74060509 -326 283 C-336.94064272 260.53732776 -345.47310982 236.80214889 -349 212 C-349.17370117 210.89736816 -349.34740234 209.79473633 -349.52636719 208.65869141 C-350.94386831 199.12881879 -351.32302168 189.86740082 -351.25 180.25 C-351.24656586 179.50543549 -351.24313171 178.76087097 -351.23959351 177.9937439 C-350.91442608 117.70867062 -326.29350328 61.61398212 -283.47436523 19.24023438 C-278.5763344 14.49273031 -273.41001634 10.1555198 -268 6 C-267.43941895 5.5683252 -266.87883789 5.13665039 -266.30126953 4.69189453 C-257.24942409 -2.23531237 -247.92302362 -8.39773013 -238 -14 C-237.34837891 -14.37366699 -236.69675781 -14.74733398 -236.02539062 -15.13232422 C-220.61015655 -23.91481302 -204.08085627 -30.25273204 -187 -35 C-186.11570312 -35.26296875 -185.23140625 -35.5259375 -184.3203125 -35.796875 C-174.09803742 -38.63478706 -163.50617388 -39.71103419 -153 -41 C-152.27280762 -41.09716309 -151.54561523 -41.19432617 -150.79638672 -41.29443359 C-98.38557471 -47.89538239 -42.06966377 -31.19525982 0 0 Z " fill="#659AD1" transform="translate(730,484)"/>
<path d="M0 0 C0.33 0.66 0.66 1.32 1 2 C2.6521855 2.70178722 4.32241397 3.36130811 6 4 C8.00635802 5.01666006 9.99883484 6.06095245 11.98046875 7.125 C13.13474365 7.74366943 14.28901855 8.36233887 15.47827148 8.99975586 C16.71477538 9.66632884 17.95118274 10.33308092 19.1875 11 C20.4674956 11.68829509 21.74752517 12.37652702 23.02758789 13.06469727 C31.10811089 17.41438588 39.15507667 21.82074914 47.1640625 26.30078125 C53.36541688 29.76890666 59.59020942 33.1946415 65.8125 36.625 C67.0637309 37.31500429 68.31495155 38.00502718 69.56616211 38.69506836 C72.10996543 40.09792896 74.65383816 41.5006636 77.19775391 42.90332031 C82.09913431 45.60594332 86.9997872 48.30988447 91.90039062 51.01391602 C94.30392663 52.34012432 96.70757876 53.6661218 99.11132812 54.99194336 C104.59736162 58.01799438 110.08281015 61.04508518 115.56565857 64.0769043 C128.57187066 71.26875651 141.59486291 78.42545473 154.67260742 85.48681641 C161.22020973 89.02549357 167.73791511 92.61356418 174.23657227 96.24121094 C183.78515753 101.56548202 193.3956392 106.77724001 203 112 C202.45406874 115.53101632 201.66912773 117.91615106 199.59375 120.8203125 C198.85572144 121.86239868 198.85572144 121.86239868 198.1027832 122.92553711 C197.30940552 124.01427124 197.30940552 124.01427124 196.5 125.125 C195.95754639 125.87982666 195.41509277 126.63465332 194.85620117 127.41235352 C180.95219438 146.60180859 165.01257737 163.84526178 146 178 C145.43023438 178.43054688 144.86046875 178.86109375 144.2734375 179.3046875 C135.29403972 186.0699872 125.9215892 191.72900545 116 197 C115.35836914 197.34804688 114.71673828 197.69609375 114.05566406 198.0546875 C103.78827169 203.60293813 93.25732922 207.6270393 82.18115234 211.27001953 C80.37605271 211.87414399 78.58603211 212.52311633 76.80078125 213.18359375 C67.17161982 216.7138284 57.08728899 218.34081818 47 220 C46.2869873 220.12149414 45.57397461 220.24298828 44.83935547 220.36816406 C6.8216108 226.58840556 -33.40146427 221.0611088 -69 207 C-69.69738281 206.72575195 -70.39476562 206.45150391 -71.11328125 206.16894531 C-97.89823357 195.45240368 -121.14485723 178.74742699 -142 159 C-143.39605469 157.68515625 -143.39605469 157.68515625 -144.8203125 156.34375 C-151.9663779 149.42163537 -158.06255742 141.9634381 -164 134 C-164.65597168 133.12722412 -164.65597168 133.12722412 -165.32519531 132.23681641 C-171.48982846 123.99351869 -177.72894396 115.4014537 -182 106 C-180.70370192 102.11110575 -179.3996439 101.833288 -175.83984375 99.91796875 C-174.20281494 99.02549438 -174.20281494 99.02549438 -172.53271484 98.11499023 C-171.94754089 97.80133514 -171.36236694 97.48768005 -170.75946045 97.16452026 C-167.65329394 95.49884875 -164.56405164 93.80225468 -161.47265625 92.109375 C-160.84145874 91.76474716 -160.21026123 91.42011932 -159.55993652 91.06504822 C-153.59841326 87.80175697 -147.72951328 84.38880351 -141.875 80.9375 C-133.80388333 76.19123741 -125.68184626 71.55272993 -117.5 67 C-109.27796975 62.42433358 -101.1142887 57.76412135 -93 53 C-83.93815741 47.68160725 -74.80807301 42.50128891 -65.63012695 37.38623047 C-57.7890317 33.01248415 -49.97967674 28.58515298 -42.1875 24.125 C-41.61435059 23.79695374 -41.04120117 23.46890747 -40.45068359 23.13092041 C-38.11816332 21.79562637 -35.78584669 20.45997774 -33.4538269 19.12380981 C-27.02149514 15.43832721 -20.58444386 11.761114 -14.14736938 8.08392334 C-11.14496642 6.36871982 -8.14280524 4.65309332 -5.140625 2.9375 C-3.42708333 1.95833333 -1.71354167 0.97916667 0 0 Z " fill="#004482" transform="translate(587,662)"/>
</svg>
