<?xml version="1.0" encoding="UTF-8"?>
<svg version="1.1" xmlns="http://www.w3.org/2000/svg" width="2048" height="2048">
<path d="M0 0 C0.74636719 0.09152344 1.49273438 0.18304688 2.26171875 0.27734375 C3.36966797 0.38755859 3.36966797 0.38755859 4.5 0.5 C10.85004686 2.35336296 14.77340319 6.92730804 18.82421875 11.83984375 C19.34959229 12.4652002 19.87496582 13.09055664 20.41625977 13.73486328 C23.93074263 17.93455979 27.38039411 22.18515226 30.77734375 26.48046875 C33.53734985 29.95529657 36.33615183 33.39767745 39.13671875 36.83984375 C39.69077393 37.52143555 40.2448291 38.20302734 40.81567383 38.90527344 C43.63714972 42.37549024 46.4614906 45.84334244 49.2890625 49.30859375 C54.85244082 56.13236702 60.36689887 62.98702819 65.78564453 69.92626953 C69.28716056 74.39965557 72.85759081 78.8135973 76.44921875 83.21484375 C81.91441401 89.91489337 87.28477999 96.68269536 92.60644531 103.49707031 C94.88155808 106.40756003 97.16590245 109.31078871 99.44921875 112.21484375 C100.36592853 113.38147654 101.28259523 114.54814319 102.19921875 115.71484375 C102.65296875 116.29234375 103.10671875 116.86984375 103.57421875 117.46484375 C105.63671875 120.08984375 105.63671875 120.08984375 107.69921875 122.71484375 C108.15272705 123.29202148 108.60623535 123.86919922 109.07348633 124.46386719 C109.99265188 125.63374391 110.9117597 126.80366598 111.83081055 127.97363281 C114.08377969 130.84155532 116.33765598 133.70875365 118.59375 136.57421875 C125.47862993 145.32182783 132.31732693 154.10484017 139.14648438 162.89599609 C140.92782728 165.18732802 142.71155498 167.47678148 144.49609375 169.765625 C151.83341084 179.1794069 159.11614333 188.6327283 166.35351562 198.12353516 C168.45601333 200.87904239 170.56258139 203.63142373 172.66918945 206.38378906 C175.4309759 209.99278304 178.19015286 213.60376973 180.94921875 217.21484375 C181.88338623 218.4371167 181.88338623 218.4371167 182.83642578 219.68408203 C190.70574404 229.98377504 198.53857004 240.30876627 206.29980469 250.69018555 C210.17992956 255.87437863 214.09440472 261.0306411 218.03125 266.171875 C224.14981287 274.16227355 230.1576703 282.21030202 236.00952148 290.39794922 C240.27404864 296.34029081 244.68641557 302.16070986 249.13671875 307.96484375 C254.79626397 315.35001433 260.31187297 322.80564798 265.67138672 330.41015625 C268.15884959 333.92321042 270.67953153 337.41236544 273.19921875 340.90234375 C273.74473389 341.65797607 274.29024902 342.4136084 274.85229492 343.19213867 C279.43393237 349.52603041 284.07078245 355.81831229 288.71557617 362.10595703 C294.3118727 369.68923753 299.83016617 377.32742521 305.3359375 384.9765625 C306.96411131 387.23550582 308.596595 389.49127036 310.23046875 391.74609375 C316.01767095 399.73565029 321.75974752 407.75343449 327.43212891 415.82495117 C331.03767181 420.94728015 334.70348533 426.0231949 338.38671875 431.08984375 C343.41252745 438.01082614 348.27106265 445.03189878 353.07397461 452.10888672 C356.77548043 457.54576878 360.57650107 462.89880136 364.44921875 468.21484375 C369.42791199 475.05279692 374.25329764 481.98028976 379.00830078 488.9753418 C382.89842803 494.69416631 386.84589903 500.36957375 390.82421875 506.02734375 C396.92633298 514.71439318 402.9249378 523.46884319 408.890625 532.25 C411.70828211 536.39722174 414.53781642 540.53614672 417.37167358 544.67230225 C453.37616863 597.23091925 453.37616863 597.23091925 467.44970703 619.82080078 C469.62964071 623.30117031 471.84878436 626.75610976 474.06396484 630.21411133 C482.52951949 643.44315491 490.76002552 656.81346989 498.94921875 670.21484375 C499.64608612 671.35339738 500.34302647 672.49190636 501.04003906 673.63037109 C511.54364407 690.79340354 521.82614998 708.07770487 531.9375 725.47460938 C532.9275489 727.17756993 533.91883878 728.87980883 534.91015625 730.58203125 C548.4529888 753.85359248 561.51145087 777.38608019 574.27050781 801.09570312 C575.42224787 803.23570181 576.5753121 805.3749882 577.72949219 807.51367188 C584.57641325 820.2028621 591.35849406 832.92221556 597.98046875 845.73046875 C598.29714382 846.34284834 598.61381889 846.95522793 598.94009018 847.58616447 C605.78953686 860.83967216 612.5131541 874.15515316 619.18408203 887.49926758 C620.44499273 890.02117049 621.70872838 892.54162477 622.97509766 895.06079102 C631.49336328 912.00760953 639.69006414 929.06742948 647.60693359 946.30374146 C649.3346713 950.05080009 651.09367717 953.78224926 652.8671875 957.5078125 C661.83142479 976.39160191 670.33442193 995.45980027 678.65344238 1014.6360321 C680.74862066 1019.46435386 682.86003657 1024.28488022 684.99177551 1029.09716797 C694.43806127 1050.44149229 702.61214827 1072.05785033 709.94921875 1094.21484375 C710.28956146 1095.2390744 710.28956146 1095.2390744 710.63677979 1096.28399658 C737.6928966 1177.86367733 753.07855292 1263.56169889 687.94921875 1614.21484375 C687.51013184 1615.13152832 687.07104492 1616.04821289 686.61865234 1616.99267578 C673.01181197 1645.27345561 656.69943865 1672.35248163 638.94921875 1698.21484375 C638.41361328 1698.99891602 637.87800781 1699.78298828 637.32617188 1700.59082031 C628.28607589 1713.79231404 618.74994536 1726.57027385 608.94921875 1739.21484375 C608.42166992 1739.89836914 607.89412109 1740.58189453 607.35058594 1741.28613281 C601.22435061 1749.21731074 594.89773094 1756.94912131 588.37158203 1764.55419922 C586.90104875 1766.27108342 585.43824952 1767.99433057 583.9765625 1769.71875 C578.29341901 1776.40847481 572.50007564 1782.97054622 566.53515625 1789.41015625 C564.12172635 1792.02774336 561.75049939 1794.67748029 559.38671875 1797.33984375 C555.50327054 1801.6748557 551.41706965 1805.76653704 547.27734375 1809.85546875 C545.28358992 1811.87598438 543.4129374 1813.92979563 541.57421875 1816.08984375 C534.35281621 1824.48091008 526.43596257 1832.070063 517.7734375 1838.953125 C515.2762611 1840.95293847 512.83936026 1843.00778197 510.41577148 1845.09570312 C502.83300097 1851.61881664 494.92331482 1857.67139194 486.94482422 1863.69970703 C485.1572777 1865.05687778 483.38020567 1866.42581935 481.609375 1867.8046875 C466.55851669 1879.51512833 450.95228288 1890.41122669 435.07421875 1900.96484375 C434.23127258 1901.52588806 433.38832642 1902.08693237 432.51983643 1902.66497803 C359.60576889 1951.12861398 279.90531575 1988.77337054 26.94921875 2040.21484375 C25.99080582 2040.27789703 25.99080582 2040.27789703 25.01303101 2040.34222412 C7.90335583 2041.45270725 -9.22526569 2041.45881509 -26.36328125 2041.46484375 C-27.51674545 2041.46572746 -27.51674545 2041.46572746 -28.69351196 2041.46662903 C-55.90918981 2041.4812997 -82.93249498 2040.67431836 -110.05078125 2038.21484375 C-110.9136676 2038.13752014 -111.77655396 2038.06019653 -112.66558838 2037.98052979 C-124.4840286 2036.9140529 -136.27280998 2035.65991276 -148.05078125 2034.21484375 C-149.79149902 2034.00504883 -149.79149902 2034.00504883 -151.56738281 2033.79101562 C-232.65065725 2023.6769826 -314.74194049 1993.82312911 -575.13671875 1833.8828125 C-577.29134992 1831.9101408 -579.46513263 1829.99496776 -581.67993164 1828.09277344 C-586.27362588 1824.07760565 -590.59130567 1819.81848489 -594.8984375 1815.5 C-595.71396591 1814.68542831 -596.52949432 1813.87085663 -597.36973572 1813.03160095 C-599.08276133 1811.31925182 -600.7945409 1809.60565533 -602.50512695 1807.89086914 C-605.10581677 1805.2848236 -607.71180081 1802.68415853 -610.31835938 1800.08398438 C-611.99120611 1798.41047676 -613.66374259 1796.73665893 -615.3359375 1795.0625 C-616.10591568 1794.29454605 -616.87589386 1793.5265921 -617.66920471 1792.73536682 C-621.79610362 1788.59075553 -625.76453964 1784.36412054 -629.57643127 1779.92730713 C-631.63706343 1777.53387466 -633.78284659 1775.22205248 -635.92578125 1772.90234375 C-640.36762434 1768.02698745 -644.56632772 1763.00268886 -648.70507812 1757.86962891 C-650.26055202 1755.95689269 -651.83424677 1754.05999606 -653.41015625 1752.1640625 C-659.3400439 1745.0256991 -665.2158598 1737.88088507 -670.7109375 1730.3984375 C-672.38517156 1728.12047296 -674.07700715 1725.8677171 -675.796875 1723.625 C-723.99274422 1660.20054839 -761.14527745 1588.79005581 -791.21746826 1515.24945068 C-791.9638466 1513.42710235 -792.71615367 1511.60718488 -793.46923828 1509.78759766 C-823.2364665 1437.34191324 -832.33722499 1351.72691321 -832.23828125 1274.08984375 C-832.23701233 1273.04672028 -832.23574341 1272.0035968 -832.23443604 1270.92886353 C-831.98557145 1162.46812471 -812.05100569 1052.75423628 -755.88348389 836.80548096 C-754.98301353 834.00401028 -754.08729787 831.20104333 -753.19189453 828.39794922 C-744.6852147 801.80379318 -735.86675002 775.35615492 -726.05078125 749.21484375 C-725.75665344 748.43063049 -725.46252563 747.64641724 -725.15948486 746.83843994 C-709.38822923 704.83950535 -692.75939348 662.86790423 -670.51757812 623.79980469 C-668.94233986 621.02373565 -667.39373421 618.23381237 -665.84765625 615.44140625 C-649.68233101 586.36015185 -631.14352384 558.72088958 -611.05078125 532.21484375 C-610.16869746 531.02646705 -609.28720711 529.83764966 -608.40625 528.6484375 C-607.51725995 527.4619901 -606.62794412 526.27578672 -605.73828125 525.08984375 C-605.32964844 524.53288818 -604.92101562 523.97593262 -604.5 523.40209961 C-602.3001721 520.49356893 -600.50996965 518.49719734 -597.05078125 517.21484375 C-590.99939847 524.21427649 -584.96791783 531.21156924 -579.23046875 538.47265625 C-576.43042907 541.99528682 -573.58265704 545.47799015 -570.73828125 548.96484375 C-566.14914612 554.5992452 -561.61632832 560.27276226 -557.14306641 565.99951172 C-554.33203305 569.59539778 -551.48919361 573.16313639 -548.6237793 576.71582031 C-543.51408006 583.05524998 -538.55260651 589.48331029 -533.69604492 596.01855469 C-529.84789185 601.18605668 -525.90110144 606.26975345 -521.92578125 611.33984375 C-517.81124796 616.59686886 -513.77883973 621.88799284 -509.92578125 627.33984375 C-509.32467529 628.18409912 -509.32467529 628.18409912 -508.71142578 629.04541016 C-507.06551242 631.35921123 -505.42233619 633.67351904 -503.81542969 636.01464844 C-493.03315069 651.6791566 -479.28190233 665.24052461 -464.89550781 677.61743164 C-461.88309586 680.22598264 -458.97008643 682.94058824 -456.05078125 685.65234375 C-455.46683594 686.19310547 -454.88289063 686.73386719 -454.28125 687.29101562 C-452.87018888 688.59798207 -451.46034877 689.90626659 -450.05078125 691.21484375 C-448.01651574 688.60734501 -446.3204709 686.02911886 -444.80078125 683.09375 C-444.36701172 682.259646 -443.93324219 681.42554199 -443.48632812 680.56616211 C-442.77573242 679.18569702 -442.77573242 679.18569702 -442.05078125 677.77734375 C-441.28604492 676.30309937 -441.28604492 676.30309937 -440.50585938 674.79907227 C-437.13530505 668.28951716 -433.79498883 661.76458821 -430.45703125 655.23828125 C-415.38671969 625.78165151 -415.38671969 625.78165151 -408.54467773 613.40380859 C-404.51497638 606.10811895 -400.61484923 598.74799288 -396.72314453 591.37817383 C-390.42171942 579.45037728 -383.98169842 567.62434756 -377.2890625 555.91015625 C-373.66755792 549.5672319 -370.14454969 543.17078868 -366.61328125 536.77734375 C-361.32487608 527.22317935 -355.91695913 517.7498264 -350.38427734 508.33520508 C-346.61568615 501.91785972 -342.91060374 495.46744932 -339.23999023 488.99365234 C-332.48981069 477.08958186 -325.54903619 465.32431256 -318.40917969 453.64990234 C-313.53066789 445.67118802 -308.73622747 437.6472645 -303.98828125 429.58984375 C-292.81989696 410.66777974 -281.24924433 391.99689334 -269.46875 373.45068359 C-267.5609024 370.44240738 -265.66330984 367.42771642 -263.76513672 364.41333008 C-261.19996779 360.34318792 -258.62530287 356.27907373 -256.05078125 352.21484375 C-255.4794043 351.31121094 -254.90802734 350.40757812 -254.31933594 349.4765625 C-245.44660441 335.46042691 -236.3598788 321.60424099 -227.13085938 307.82128906 C-221.54417087 299.47411633 -215.99299071 291.10474292 -210.4765625 282.7109375 C-209.82982071 281.72725693 -209.18307892 280.74357635 -208.51673889 279.73008728 C-205.93947035 275.80924072 -203.3626246 271.88813209 -200.79116821 267.96347046 C-188.82651329 249.70271336 -188.82651329 249.70271336 -182.73291016 241.49316406 C-180.02550253 237.82617886 -177.48138369 234.05090207 -174.92578125 230.27734375 C-165.41178134 216.30995241 -155.72863938 202.46828017 -145.80249023 188.79052734 C-142.19537725 183.81629498 -138.64175492 178.80758164 -135.11328125 173.77734375 C-129.15222405 165.29377044 -123.00571507 156.95235957 -116.83300781 148.62207031 C-113.89838009 144.65831286 -110.97521941 140.6861211 -108.05078125 136.71484375 C-106.88933373 135.13931494 -105.72787538 133.56379412 -104.56640625 131.98828125 C-102.17724302 128.74622679 -99.79235305 125.50108254 -97.41015625 122.25390625 C-91.62095835 114.36805463 -85.80109437 106.51805309 -79.80859375 98.78515625 C-76.19337899 94.11744531 -72.6258112 89.41334825 -69.05078125 84.71484375 C-59.93046052 72.73735123 -50.759893 60.8055134 -41.44189453 48.98095703 C-39.60058084 46.64328359 -37.76217147 44.30333612 -35.92407227 41.96313477 C-35.00685085 40.79545076 -34.08936938 39.62797098 -33.17163086 38.46069336 C-30.90067783 35.57203468 -28.63270217 32.6811384 -26.37109375 29.78515625 C-21.31844018 23.32175634 -16.21424008 16.90267891 -11.05078125 10.52734375 C-10.4985791 9.84365723 -9.94637695 9.1599707 -9.37744141 8.45556641 C-8.85714355 7.81538574 -8.3368457 7.17520508 -7.80078125 6.515625 C-7.341875 5.95012939 -6.88296875 5.38463379 -6.41015625 4.80200195 C-2.52377021 0.26439497 -2.52377021 0.26439497 0 0 Z " fill="#FF5B11" transform="translate(1057.05078125,0.78515625)"/>
<path d="M0 0 C0.66 0 1.32 0 2 0 C3.41438406 1.57286684 4.75604401 3.21139996 6.0625 4.875 C9.11025865 8.68835562 12.20500341 12.39808809 15.5 16 C19.34191939 20.22013944 22.96115221 24.58027184 26.55078125 29.015625 C29.31810802 32.38761487 32.15150415 35.69662321 35 39 C39.3225777 44.01655087 43.55779121 49.09183187 47.73046875 54.234375 C50.24099886 57.29367847 52.80516192 60.30309621 55.375 63.3125 C59.17605008 67.77068526 62.84601964 72.30909745 66.4375 76.9375 C70.16593549 81.7415738 74.01374859 86.40773064 78 91 C82.41606769 96.09137457 86.6501684 101.28782542 90.78515625 106.609375 C94.29619072 111.12356218 97.88251116 115.57076899 101.5 120 C106.96549719 126.69979735 112.33556693 133.46785889 117.65722656 140.28222656 C119.93233948 143.19271647 122.21673698 146.09590285 124.5 149 C125.41538617 150.16534762 126.33075076 151.3307122 127.24609375 152.49609375 C129.09063996 154.84387673 130.93718056 157.19007187 132.78515625 159.53515625 C138.50337403 166.79509467 144.17067587 174.09144968 149.79248047 181.42626953 C151.73220838 183.95426915 153.67953369 186.47641515 155.625 189 C168.79945063 206.11607488 181.84033151 223.32696896 194.63500977 240.72875977 C198.41377817 245.86335859 202.2245355 250.97205291 206.0625 256.0625 C211.93941943 263.86781412 217.65788964 271.78344843 223.35888672 279.71777344 C225.52711943 282.73304261 227.70173383 285.74367498 229.87695312 288.75390625 C231.50336648 291.00465879 233.12863449 293.25623553 234.75390625 295.5078125 C236.90357477 298.48467399 239.05752177 301.45836838 241.21484375 304.4296875 C248.66059492 314.69400174 255.9702303 325.04716883 263.22070312 335.45019531 C265.0131959 338.01891026 266.81044232 340.58422914 268.609375 343.1484375 C275.30926198 352.69887487 281.97740888 362.26926374 288.56298828 371.89892578 C289.52936162 373.31187328 290.49649714 374.72429976 291.46435547 376.13623047 C300.30469679 389.03461817 309.06336051 401.98853025 317.8147583 414.94735718 C319.08664075 416.83039063 320.35904542 418.71307147 321.63201904 420.59536743 C329.17062204 431.74458544 336.61544402 442.94376342 343.88690186 454.26913452 C345.36714605 456.57091141 346.86002525 458.86432543 348.35546875 461.15625 C356.98268639 474.38712307 365.50236099 487.68561947 374 501 C374.60489258 501.94665527 375.20978516 502.89331055 375.83300781 503.86865234 C384.98160082 518.18764013 394.05272849 532.55422345 403 547 C403.43119141 547.69609375 403.86238281 548.3921875 404.30664062 549.109375 C441.52202379 609.46549897 471.51040519 674.6114272 496 741.0625 C496.66781494 742.8724646 496.66781494 742.8724646 497.34912109 744.71899414 C502.20597836 758.05629966 505.97001272 771.38879857 508.9375 785.25 C509.10986176 786.05102142 509.28222351 786.85204285 509.45980835 787.67733765 C512.75380359 803.0752125 515.47329469 818.50718534 517.49609375 834.12304688 C517.81634841 836.58702168 518.14834623 839.04952041 518.49609375 841.50976562 C521.18803792 860.94293283 521.31275302 880.43333085 521.36791611 900.01615524 C521.37485454 902.0816957 521.38650553 904.14716402 521.39907837 906.212677 C521.71983312 967.34497413 508.95162549 1027.58058526 483 1083 C482.19312162 1084.77173091 481.38714021 1086.54387058 480.58203125 1088.31640625 C468.70783254 1114.16038996 453.77470757 1138.81207897 436.33007812 1161.27294922 C434.32280761 1163.87930598 432.38629555 1166.53727626 430.4375 1169.1875 C426.00837656 1175.09034257 421.28222702 1180.70116968 416.46777344 1186.28955078 C414.94047598 1188.06936548 413.42623406 1189.8596658 411.9140625 1191.65234375 C407.05821109 1197.39274096 402.18540474 1202.98461282 396.78125 1208.22265625 C394.9837243 1210.01624 393.3352354 1211.8810743 391.6875 1213.8125 C385.43686479 1221.06209518 378.56319414 1227.79244106 371.28125 1234 C368.80715387 1236.16907058 366.41082895 1238.40857998 364.01293945 1240.66113281 C357.55101892 1246.72809579 350.94930318 1252.49081667 344 1258 C342.98035156 1258.83789062 341.96070313 1259.67578125 340.91015625 1260.5390625 C331.12972738 1268.50991581 320.66341174 1275.2782777 310 1282 C309.16049805 1282.53383301 308.32099609 1283.06766602 307.45605469 1283.61767578 C262.77541203 1312.00292364 215.33363329 1334.7027991 165.125 1351.4375 C163.99386276 1351.81479248 163.99386276 1351.81479248 162.83987427 1352.19970703 C154.29590515 1355.0386246 145.73234013 1357.71976151 137.05859375 1360.13745117 C133.98234395 1361.00497915 130.92945525 1361.93397443 127.875 1362.875 C110.68272773 1367.77877101 92.95879569 1371.12129207 75.27246094 1373.65625 C72.58640445 1374.06256366 69.91174558 1374.52435168 67.234375 1374.984375 C61.09141255 1376.01529408 54.93804825 1376.79610951 48.75 1377.5 C47.76515625 1377.61730469 46.7803125 1377.73460937 45.765625 1377.85546875 C42.17999238 1378.26817151 38.59120085 1378.63998749 35 1379 C34.17975342 1379.08471558 33.35950684 1379.16943115 32.5144043 1379.25671387 C15.65949169 1380.96198968 -1.0674107 1381.32228833 -18 1381.25 C-19.94456085 1381.24534729 -19.94456085 1381.24534729 -21.92840576 1381.24060059 C-41.35431584 1381.18615862 -60.65775693 1380.92898251 -80 1379 C-81.95389648 1378.80664062 -81.95389648 1378.80664062 -83.94726562 1378.609375 C-144.6604827 1372.43932707 -202.41638357 1357.83539739 -257.81201172 1332.01611328 C-259.942765 1331.02658023 -262.08137386 1330.0563428 -264.22265625 1329.08984375 C-305.21088765 1310.42689185 -344.43826421 1284.7527938 -377.59375 1254.1953125 C-378.93261868 1252.97381218 -380.27967809 1251.76059391 -381.65649414 1250.58203125 C-387.33009746 1245.71997876 -392.65517839 1240.53098593 -397.93579102 1235.24951172 C-399.42641615 1233.76106763 -400.92487017 1232.28082723 -402.42382812 1230.80078125 C-407.93942097 1225.31715461 -413.04482544 1219.68765099 -417.8996582 1213.59692383 C-419.89941477 1211.12436651 -421.97452191 1208.75845972 -424.109375 1206.40234375 C-428.08426989 1201.97432656 -431.69969472 1197.33490127 -435.25 1192.5625 C-435.89622314 1191.69560547 -436.54244629 1190.82871094 -437.20825195 1189.93554688 C-448.09416607 1175.21550739 -457.82150175 1159.83329513 -467 1144 C-467.4626123 1143.20400391 -467.92522461 1142.40800781 -468.40185547 1141.58789062 C-487.56204344 1108.36873619 -500.80738339 1072.55088861 -512 1036 C-512.34546875 1034.8749707 -512.6909375 1033.74994141 -513.046875 1032.59082031 C-520.06545308 1009.42807442 -525.31161777 985.50397955 -528.4921875 961.5078125 C-528.88870613 958.03880664 -528.88870613 958.03880664 -530 955 C-541.50273492 876.57913589 -525.25274657 795.74517786 -494 724 C-493.45358586 722.74122284 -492.90719785 721.48243434 -492.36083984 720.22363281 C-484.86669978 703.01592513 -476.98193677 685.98598128 -469 669 C-468.51112305 667.95763184 -468.02224609 666.91526367 -467.51855469 665.84130859 C-461.74452701 653.55526402 -455.71434951 641.4539598 -449.31542969 629.48242188 C-447.91314505 626.8360911 -446.53602027 624.17779898 -445.1640625 621.515625 C-438.10084124 607.81746926 -430.70856379 594.34537415 -423 581 C-422.50506042 580.14287415 -422.50506042 580.14287415 -422.00012207 579.26843262 C-410.75420556 559.8059229 -399.51354472 540.35595217 -386.27734375 522.16015625 C-383.53635423 518.35662191 -380.95061183 514.46613719 -378.3671875 510.5546875 C-375.26888206 505.88106588 -372.09898432 501.25599727 -368.9375 496.625 C-368.29208252 495.67947266 -367.64666504 494.73394531 -366.98168945 493.75976562 C-365.65055026 491.81011235 -364.31924966 489.86056928 -362.98779297 487.91113281 C-359.82267736 483.27580506 -356.66146804 478.63781592 -353.5 474 C-352.25002022 472.16665288 -351.00002018 470.33331957 -349.75 468.5 C-349.13125 467.5925 -348.5125 466.685 -347.875 465.75 C-336 448.33333333 -324.125 430.91666667 -312.25 413.5 C-311.63092773 412.5920166 -311.01185547 411.6840332 -310.37402344 410.74853516 C-309.12731907 408.92005707 -307.88057445 407.09160643 -306.63378906 405.26318359 C-302.811431 399.65752465 -298.99065072 394.05079421 -295.17089844 388.44335938 C-293.28212426 385.672133 -291.39123022 382.90236313 -289.5 380.1328125 C-287.32429128 376.94610869 -285.15706113 373.75403824 -283 370.5546875 C-277.48410217 362.40184149 -271.67368608 354.59348005 -265.52148438 346.91162109 C-262.62925511 343.27777079 -259.78612949 339.60555622 -256.9375 335.9375 C-256.33832764 335.16680176 -255.73915527 334.39610352 -255.12182617 333.60205078 C-250.93797217 328.21732348 -246.77738568 322.81527871 -242.625 317.40625 C-238.82900357 312.47145464 -234.99701961 307.56454869 -231.171875 302.65234375 C-227.76757571 298.27855923 -224.37502406 293.89641293 -221 289.5 C-217.02101001 284.31684199 -213.01462082 279.15560138 -209 274 C-203.30622794 266.68718566 -197.64267946 259.35229922 -192 252 C-190.33390747 249.83289153 -188.66694801 247.66645047 -187 245.5 C-186.16665095 244.41667876 -185.33331759 243.33334544 -184.5 242.25 C-149.5 196.75 -149.5 196.75 -148.25073242 195.12597656 C-147.41492624 194.03941221 -146.57915165 192.95282355 -145.7434082 191.86621094 C-143.69816364 189.20711452 -141.65230009 186.5485006 -139.60546875 183.890625 C-133.27237327 175.6647627 -126.9636048 167.42047125 -120.66015625 159.171875 C-119.05534906 157.0724096 -117.44972084 154.97357536 -115.84375 152.875 C-109.88680193 145.09019436 -103.93923058 137.29833275 -98 129.5 C-90.49219724 119.64209949 -82.96730692 109.79738043 -75.43652344 99.95703125 C-57.81195696 76.94581815 -57.81195696 76.94581815 -40.3581543 53.80517578 C-36.85001636 49.11937765 -33.30885245 44.45987884 -29.75 39.8125 C-28.95758911 38.7774231 -28.95758911 38.7774231 -28.14916992 37.72143555 C-25.76025453 34.60195195 -23.37048949 31.48312259 -20.97949219 28.36523438 C-18.85935732 25.5991592 -16.74201623 22.83096246 -14.625 20.0625 C-13.97112305 19.21083252 -13.31724609 18.35916504 -12.64355469 17.48168945 C-8.74002242 12.37259609 -5.02319416 7.18593714 -1.45849609 1.83374023 C-0.97719238 1.22860596 -0.49588867 0.62347168 0 0 Z " fill="#FF9657" transform="translate(1025,334)"/>
</svg>
