<?xml version="1.0" standalone="no"?>
<!DOCTYPE svg PUBLIC "-//W3C//DTD SVG 20010904//EN"
 "http://www.w3.org/TR/2001/REC-SVG-20010904/DTD/svg10.dtd">
<svg version="1.0" xmlns="http://www.w3.org/2000/svg"
 width="300.000000pt" height="300.000000pt" viewBox="0 0 300.000000 300.000000"
 preserveAspectRatio="xMidYMid meet">

<g transform="translate(0.000000,300.000000) scale(0.100000,-0.100000)"
fill="#000000" stroke="none">
<path d="M828 1991 c-71 -23 -139 -66 -195 -123 -30 -30 -108 -163 -262 -443
l-220 -400 242 -3 c184 -2 244 1 253 10 13 14 534 962 534 972 0 3 -66 6 -147
5 -115 0 -161 -4 -205 -18z"/>
<path d="M1266 1988 c-22 -36 -526 -959 -526 -964 0 -2 110 -4 244 -4 l244 0
25 43 c31 55 511 928 515 939 2 4 -107 8 -242 8 -244 0 -246 0 -260 -22z"/>
<path d="M1610 1548 c-140 -255 -263 -478 -273 -496 l-20 -34 169 4 169 3 78
37 c138 66 161 97 405 544 116 215 212 393 212 397 0 4 -109 7 -243 7 l-244 0
-253 -462z"/>
<path d="M2562 1997 c-47 -15 -117 -80 -142 -133 -32 -66 -26 -163 16 -230 81
-131 270 -154 379 -46 50 50 66 84 72 154 16 176 -154 310 -325 255z"/>
</g>
</svg>
